<?xml version="1.0" encoding="utf-8"?>
<!-- Generator: Adobe Illustrator 27.9.0, SVG Export Plug-In . SVG Version: 6.00 Build 0)  -->
<svg version="1.1" id="Layer_1" xmlns="http://www.w3.org/2000/svg" xmlns:xlink="http://www.w3.org/1999/xlink" x="0px" y="0px"
	 viewBox="0 0 100 100" style="enable-background:new 0 0 100 100;" xml:space="preserve">
<path d="M5,67.2C5,67.2,5,67.2,5,67.2c0,0.1,0,0.1,0,0.1c0,0,0,0,0.1,0.1c0,0,0,0,0,0l48.1,25.4c0,0,0.1,0,0.1,0c0,0,0.1,0,0.1,0
	c0,0,0,0,0,0l41.4-29.4c0,0,0,0,0,0c0,0,0,0,0-0.1c0,0,0-0.1,0-0.1c0,0,0,0,0,0V34.9c0,0,0,0,0,0c0,0,0,0,0-0.1c0,0,0,0,0,0
	c0,0,0,0,0,0c0,0,0,0,0,0c0,0,0,0,0,0l-48-25.4c0,0,0,0,0,0c0,0-0.1,0-0.1,0c0,0-0.1,0-0.1,0c0,0,0,0,0,0L5.1,38.8c0,0,0,0,0,0
	c0,0,0,0,0,0c0,0,0,0,0,0c0,0,0,0,0,0c0,0,0,0,0,0.1c0,0,0,0,0,0C5,39,5,67.2,5,67.2z M46.7,9.8l5.5,2.9c0,0,0,0,0,0c0,0,0,0,0,0
	l-2.5-0.4c0,0,0,0,0,0c0,0,0,0,0,0c0,0,0,0,0,0l-2.6,0c0,0,0,0,0,0c0,0,0,0,0,0l-2.5,0.4c0,0,0,0,0,0c0,0,0,0,0,0l-2.2,0.8
	c0,0,0,0,0,0c0,0,0,0,0,0l-1.8,1.1c0,0,0,0,0,0c0,0,0,0,0,0L39,16.1c0,0,0,0,0,0c0,0,0,0,0,0l-0.7,1.5c0,0,0,0,0,0.1c0,0,0,0,0,0
	l0,1.6l0,3.1c0,0,0,0,0,0c0,0,0,0,0,0l0,1.6c0,0,0,0,0,0c0,0,0,0,0,0l0.7,1.5c0,0,0,0,0,0c0,0,0,0,0,0l1.3,1.4c0,0,0,0,0,0
	c0,0,0,0,0,0l1.8,1.1c0,0,0,0,0,0c0,0,0,0,0,0l2.3,0.8c0,0,0,0,0,0c0,0,0,0,0,0l2.5,0.4c0,0,0,0,0,0l0,0h2.6l0,0c0,0,0,0,0,0
	l2.5-0.4c0,0,0,0,0,0c0,0,0,0,0,0l2.2-0.8c0,0,0,0,0,0c0,0,0,0,0,0l1.8-1.1c0,0,0,0,0,0c0,0,0,0,0,0l1.3-1.4c0,0,0,0,0,0
	c0,0,0,0,0,0l0.7-1.5c0,0,0,0,0,0c0,0,0,0,0,0v-4.7v-1.6c0,0,0,0,0,0c0,0,0,0,0-0.1l-0.7-1.5c0,0,0,0,0,0c0,0,0,0,0,0l-0.8-0.9
	l19.3,10.2L73.7,25c0,0,0,0,0,0s0,0,0,0H71c0,0,0,0,0,0s0,0,0,0l-2.5,0.4c0,0,0,0,0,0c0,0,0,0,0,0l-2.2,0.8c0,0,0,0,0,0c0,0,0,0,0,0
	l-1.8,1.1c0,0,0,0,0,0c0,0,0,0,0,0L63,28.8c0,0,0,0,0,0c0,0,0,0,0,0l-0.7,1.5c0,0,0,0,0,0c0,0,0,0,0,0V32v3.1v1.6c0,0,0,0,0,0
	c0,0,0,0,0,0l0.7,1.5c0,0,0,0,0,0c0,0,0,0,0,0l1.3,1.4c0,0,0,0,0,0c0,0,0,0,0,0l1.8,1.1c0,0,0,0,0,0c0,0,0,0,0,0l2.2,0.8
	c0,0,0,0,0,0c0,0,0,0,0,0l2.5,0.4c0,0,0,0,0,0l0,0h2.6l0,0c0,0,0,0,0,0l2.5-0.4c0,0,0,0,0,0c0,0,0,0,0,0l2.2-0.8c0,0,0,0,0,0
	c0,0,0,0,0,0l1.8-1.1c0,0,0,0,0,0c0,0,0,0,0,0l1.3-1.4c0,0,0,0,0,0c0,0,0,0,0,0l0.7-1.5c0,0,0,0,0,0c0,0,0,0,0,0V32l0,0c0,0,0,0,0,0
	l0-1.6c0,0,0,0,0,0c0,0,0,0,0,0l-0.7-1.5c0,0,0,0,0,0c0,0,0,0,0,0l-0.8-0.8L94.3,35L53.3,64l-0.2-0.1c0.1-0.1,0.1-0.2,0-0.3
	c-0.1-0.1-0.2-0.1-0.3,0l-0.1,0.1c0,0,0,0,0,0L5.7,39L46.7,9.8z M57.3,16.3l0.6,1.4v1.5l-0.6,1.4L56.1,22l-1.8,1.1l-2.2,0.8
	l-2.5,0.4l-2.5,0l-2.5-0.4l-2.2-0.8l-1.8-1.1l-1.2-1.3l-0.6-1.4l0-1.5l0.6-1.4l1.2-1.3l1.8-1.1l2.2-0.8l2.5-0.4l2.6,0l2.5,0.4
	l2.2,0.8L56,15L57.3,16.3z M81.3,29l0.6,1.4l0,1.5l-0.6,1.4l-1.3,1.3l-1.8,1.1l-2.2,0.8L73.7,37l-2.6,0l-2.5-0.4l-2.2-0.8l-1.8-1.1
	l-1.3-1.3L62.8,32v-1.5l0.6-1.4l1.2-1.3l1.8-1.1l2.2-0.8l2.5-0.4h2.6l2.5,0.4l2.2,0.8l1.8,1.1L81.3,29z M5.5,39.4l47.6,25.1v27.7
	L5.5,67.1V39.4z"/>
<path d="M17.6,38.8C17.6,38.8,17.6,38.8,17.6,38.8l0.7,1.6c0,0,0,0,0,0c0,0,0,0,0,0l1.3,1.4c0,0,0,0,0,0c0,0,0,0,0,0l1.8,1.1
	c0,0,0,0,0,0c0,0,0,0,0,0l2.2,0.8c0,0,0,0,0,0c0,0,0,0,0,0l2.5,0.4c0,0,0,0,0,0l0,0h2.6l0,0c0,0,0,0,0,0l2.5-0.4c0,0,0,0,0,0
	c0,0,0,0,0,0l2.2-0.8c0,0,0,0,0,0c0,0,0,0,0,0l1.8-1.1c0,0,0,0,0,0c0,0,0,0,0,0l1.3-1.4c0,0,0,0,0,0c0,0,0,0,0,0l0.7-1.5
	c0,0,0,0,0,0c0,0,0,0,0,0V34v-1.6c0,0,0,0,0,0c0,0,0,0,0-0.1L37,30.8c0,0,0,0,0,0c0,0,0,0,0,0l-1.3-1.4c0,0,0,0,0,0c0,0,0,0,0,0
	l-1.8-1.1c0,0,0,0,0,0c0,0,0,0,0,0l-2.3-0.8c0,0,0,0,0,0c0,0,0,0,0,0L28.9,27c0,0,0,0,0,0s0,0,0,0h-2.6c0,0,0,0,0,0c0,0,0,0,0,0
	l-2.5,0.4c0,0,0,0,0,0c0,0,0,0,0,0l-2.2,0.8c0,0,0,0,0,0c0,0,0,0,0,0l-1.8,1.2c0,0,0,0,0,0c0,0,0,0,0,0l-1.3,1.4c0,0,0,0,0,0
	c0,0,0,0,0,0l-0.7,1.5c0,0,0,0,0,0c0,0,0,0,0,0v1.6v3.1L17.6,38.8C17.6,38.8,17.6,38.8,17.6,38.8z M18.7,31.1l1.2-1.3l1.8-1.1
	l2.2-0.8l2.5-0.4h2.5l2.5,0.4l2.2,0.8l1.8,1.1l1.2,1.3l0.7,1.5V34l-0.6,1.5l-1.2,1.3l-1.8,1.1l-2.2,0.8L28.9,39h-2.5l-2.5-0.4
	l-2.2-0.8l-1.8-1.1l-1.2-1.3L18,34v-1.5L18.7,31.1z"/>
<path d="M41.6,51.5l0.7,1.5c0,0,0,0,0,0c0,0,0,0,0,0l1.3,1.4c0,0,0,0,0,0c0,0,0,0,0,0l1.8,1.1c0,0,0,0,0,0c0,0,0,0,0,0l2.3,0.8
	c0,0,0,0,0,0c0,0,0,0,0,0l2.5,0.4c0,0,0,0,0,0l0,0H53l0,0c0,0,0,0,0,0l2.5-0.4c0,0,0,0,0,0c0,0,0,0,0,0l2.2-0.8c0,0,0,0,0,0
	c0,0,0,0,0,0l1.8-1.1c0,0,0,0,0,0c0,0,0,0,0,0l1.3-1.4c0,0,0,0,0,0c0,0,0,0,0,0l0.7-1.5c0,0,0,0,0,0c0,0,0,0,0,0v-4.7v-1.6
	c0,0,0,0,0,0c0,0,0,0,0-0.1L61,43.5c0,0,0,0,0,0c0,0,0,0,0,0l-1.3-1.4c0,0,0,0,0,0c0,0,0,0,0,0l-1.8-1.1c0,0,0,0,0,0c0,0,0,0,0,0
	l-2.2-0.8c0,0,0,0,0,0c0,0,0,0,0,0L53,39.7c0,0,0,0,0,0c0,0,0,0,0,0h-2.6c0,0,0,0,0,0c0,0,0,0,0,0l-2.5,0.4c0,0,0,0,0,0c0,0,0,0,0,0
	l-2.2,0.8c0,0,0,0,0,0c0,0,0,0,0,0L43.6,42c0,0,0,0,0,0c0,0,0,0,0,0l-1.3,1.4c0,0,0,0,0,0c0,0,0,0,0,0l-0.7,1.5c0,0,0,0,0,0
	c0,0,0,0,0,0v1.6v3.1L41.6,51.5C41.6,51.5,41.6,51.5,41.6,51.5C41.6,51.5,41.6,51.5,41.6,51.5z M42.7,43.8l1.2-1.3l1.8-1.1l2.2-0.8
	l2.5-0.4h2.5l2.5,0.4l2.2,0.8l1.8,1.1l1.3,1.3l0.7,1.4v1.5l-0.6,1.4l-1.3,1.3l-1.8,1.1l-2.2,0.8L53,51.7h-2.5L48,51.3l-2.2-0.8
	L44,49.5l-1.2-1.3l-0.7-1.4v-1.5L42.7,43.8z"/>
</svg>
