<?xml version="1.0" encoding="utf-8"?>
<!-- Generator: Adobe Illustrator 27.9.0, SVG Export Plug-In . SVG Version: 6.00 Build 0)  -->
<svg version="1.1" id="Layer_1" xmlns="http://www.w3.org/2000/svg" xmlns:xlink="http://www.w3.org/1999/xlink" x="0px" y="0px"
	 viewBox="0 0 100 100" style="enable-background:new 0 0 100 100;" xml:space="preserve">
<style type="text/css">
	.st0{fill:#FFFFFF;}
</style>
<path class="st0" d="M5,67.2L5,67.2C5,67.3,5,67.3,5,67.2c0,0.1,0,0.1,0.1,0.2l0,0l48.1,25.4h0.1h0.1l0,0l41.4-29.4l0,0
	c0,0,0,0,0-0.1v-0.1l0,0V34.9l0,0c0,0,0,0,0-0.1l0,0l0,0l0,0l0,0l-48-25.4l0,0h-0.1h-0.1l0,0L5.1,38.8l0,0l0,0l0,0l0,0
	c0,0,0,0,0,0.1l0,0C5,39,5,67.2,5,67.2z M46.7,9.8l5.5,2.9l0,0l0,0l-2.5-0.4l0,0l0,0l0,0h-2.6l0,0l0,0l-2.5,0.4l0,0l0,0l-2.2,0.8
	l0,0l0,0l-1.8,1.1l0,0l0,0L39,16.1l0,0l0,0l-0.7,1.5c0,0,0,0,0,0.1l0,0v1.6v3.1l0,0l0,0V24l0,0l0,0l0.7,1.5l0,0l0,0l1.3,1.4l0,0l0,0
	l1.8,1.1l0,0l0,0l2.3,0.8l0,0l0,0l2.5,0.4l0,0l0,0h2.6l0,0l0,0l2.5-0.4l0,0l0,0l2.2-0.8l0,0l0,0l1.8-1.1l0,0l0,0l1.3-1.4l0,0l0,0
	L58,24l0,0l0,0v-4.7v-1.6l0,0c0,0,0,0,0-0.1l-0.7-1.5l0,0l0,0l-0.8-0.9l19.3,10.2L73.7,25l0,0l0,0H71l0,0l0,0l-2.5,0.4l0,0l0,0
	l-2.2,0.8l0,0l0,0l-1.8,1.1l0,0l0,0L63,28.8l0,0l0,0l-0.7,1.5l0,0l0,0V32v3.1v1.6l0,0l0,0l0.7,1.5l0,0l0,0l1.3,1.4l0,0l0,0l1.8,1.1
	l0,0l0,0l2.2,0.8l0,0l0,0l2.5,0.4l0,0l0,0h2.6l0,0l0,0l2.5-0.4l0,0l0,0l2.2-0.8l0,0l0,0l1.8-1.1l0,0l0,0l1.3-1.4l0,0l0,0l0.7-1.5
	l0,0l0,0V32l0,0l0,0v-1.6l0,0l0,0l-0.7-1.5l0,0l0,0l-0.8-0.8L94.3,35l-41,29l-0.2-0.1c0.1-0.1,0.1-0.2,0-0.3s-0.2-0.1-0.3,0
	l-0.1,0.1l0,0L5.7,39L46.7,9.8z M57.3,16.3l0.6,1.4v1.5l-0.6,1.4L56.1,22l-1.8,1.1l-2.2,0.8l-2.5,0.4h-2.5l-2.5-0.4l-2.2-0.8
	L40.6,22l-1.2-1.3l-0.6-1.4v-1.5l0.6-1.4l1.2-1.3l1.8-1.1l2.2-0.8l2.5-0.4h2.6l2.5,0.4l2.2,0.8l1.6,1L57.3,16.3z M81.3,29l0.6,1.4
	v1.5l-0.6,1.4L80,34.6l-1.8,1.1L76,36.5L73.7,37h-2.6l-2.5-0.4l-2.2-0.8l-1.8-1.1l-1.3-1.3L62.8,32v-1.5l0.6-1.4l1.2-1.3l1.8-1.1
	l2.2-0.8l2.5-0.4h2.6l2.5,0.4l2.2,0.8l1.8,1.1L81.3,29z M5.5,39.4l47.6,25.1v27.7L5.5,67.1V39.4z"/>
<path class="st0" d="M17.6,38.8L17.6,38.8l0.7,1.6l0,0l0,0l1.3,1.4l0,0l0,0l1.8,1.1l0,0l0,0l2.2,0.8l0,0l0,0l2.5,0.4l0,0l0,0h2.6
	l0,0l0,0l2.5-0.4l0,0l0,0l2.2-0.8l0,0l0,0l1.8-1.1l0,0l0,0l1.3-1.4l0,0l0,0l0.7-1.5l0,0l0,0V34v-1.6l0,0c0,0,0,0,0-0.1L37,30.8l0,0
	l0,0l-1.3-1.4l0,0l0,0l-1.8-1.1l0,0l0,0l-2.3-0.8l0,0l0,0L28.9,27l0,0l0,0h-2.6l0,0l0,0l-2.5,0.4l0,0l0,0l-2.2,0.8l0,0l0,0l-1.8,1.2
	l0,0l0,0l-1.3,1.4l0,0l0,0l-0.7,1.5l0,0l0,0v1.6V37L17.6,38.8L17.6,38.8z M18.7,31.1l1.2-1.3l1.8-1.1l2.2-0.8l2.5-0.4h2.5l2.5,0.4
	l2.2,0.8l1.8,1.1l1.2,1.3l0.7,1.5V34l-0.6,1.5l-1.2,1.3l-1.8,1.1l-2.2,0.8L28.9,39h-2.5l-2.5-0.4l-2.2-0.8l-1.8-1.1l-1.2-1.3L18,34
	v-1.5L18.7,31.1z"/>
<path class="st0" d="M41.6,51.5l0.7,1.5l0,0l0,0l1.3,1.4l0,0l0,0l1.8,1.1l0,0l0,0l2.3,0.8l0,0l0,0l2.5,0.4l0,0l0,0H53l0,0l0,0
	l2.5-0.4l0,0l0,0l2.2-0.8l0,0l0,0l1.8-1.1l0,0l0,0l1.3-1.4l0,0l0,0l0.7-1.5l0,0l0,0v-4.7v-1.6l0,0c0,0,0,0,0-0.1L61,43.5l0,0l0,0
	l-1.3-1.4l0,0l0,0L57.9,41l0,0l0,0l-2.2-0.8l0,0l0,0L53,39.7l0,0l0,0h-2.6l0,0l0,0l-2.5,0.4l0,0l0,0l-2.2,0.8l0,0l0,0L43.6,42l0,0
	l0,0l-1.3,1.4l0,0l0,0l-0.7,1.5l0,0l0,0v1.6v3.1V51.5L41.6,51.5L41.6,51.5z M42.7,43.8l1.2-1.3l1.8-1.1l2.2-0.8l2.5-0.4h2.5l2.5,0.4
	l2.2,0.8l1.8,1.1l1.3,1.3l0.7,1.4v1.5l-0.6,1.4l-1.3,1.3l-1.8,1.1l-2.2,0.8L53,51.7h-2.5L48,51.3l-2.2-0.8l-1.8-1l-1.2-1.3l-0.7-1.4
	v-1.5L42.7,43.8z"/>
</svg>
